<svg id="Layer_1" data-name="Layer 1" xmlns="http://www.w3.org/2000/svg" viewBox="0 0 1200 1200"><defs><style>.cls-1{fill:#e9e8e8;}.cls-2{fill:#1d252e;}.cls-3,.cls-6{fill:#fff;}.cls-4{fill:none;}.cls-4,.cls-6{stroke:#1d252e;stroke-linecap:round;stroke-linejoin:round;stroke-width:4px;}.cls-5{fill:#9dd5c0;}</style></defs><path id="Oval" class="cls-1" d="M600,960.93c189.83,0,343.72-241.76,343.72-412.57S789.83,239.07,600,239.07,256.28,377.54,256.28,548.36,410.17,960.93,600,960.93Z"/><path class="cls-2" d="M769.17,930.2c-22.81,11.73-205.65,24.9-346.87,14.46.1-8.74,3.14,0,9.14-36.76,4.34-26.55,29.17-43.61,41.32-99.67.18-.84.35-1.69.53-2.55,4.8-8,8.11-46.24,10.32-86.27,31.93-23.62,200.54-30.84,217.69-.56-1,37.65,3.06,62.77,10,84.17C725.34,846.54,751.05,843.3,769.17,930.2Z"/><path id="Path-102" class="cls-2" d="M514.91,300.54q-10-27.72-.28-44.61c9.72-16.9,34.85-39.69,73.88-37.48s71.76,34.49,82.73,72q11,37.45-1.24,82-9.19,14.86-20.5,15.76c-11.3.89-34.64-3.13-42.89-10.77Q598.36,369.75,514.91,300.54Z"/><path id="Path-103" class="cls-3" d="M519.88,300.15l-8.25,28.75,5.94,32.27,18.14,22.31,18.63,9.62,1.39,54.14-43.4,2.12,19,37.24c27.12,14.1,58.66,16.19,92.43,12.22L671.87,453l-62-7.32-5.31-56.51,15.09-23.4,6.25-21.7L640,341.36l2.61-22.76-11-10.61-19.12-2.54-13.65-19.71,1.12-17.51L551,297.7Z"/><path id="Path-86" class="cls-4" d="M519.88,300.15q-12.69,27.18-4.39,55.42t40.75,37.27l-.51,54.4-25.68,1.26"/><path id="Path-87" class="cls-4" d="M520.74,298.06q7.43,4.38,27.87-2.2t51.3-27.63a34.2,34.2,0,0,0,1.85,23.45q5.09,11.35,15.13,16.41,17.4-5.94,23.38,7.51c6,13.45,2.19,25.2-2.31,27.5q-4.5,2.29-12.11.95,1.1,10.59-7.88,25.17t-13.7,16.17l3.25,60.73,16.83,1.36"/><path id="Path-98" class="cls-4" d="M550.31,390.86c3.23,1.76,7.87,2.91,13.89,3.43s13-.31,21-2.51"/><path id="Path-104" class="cls-4" d="M647.26,394.22q4.54,1.26,11-.87t13.79-12.07"/><path id="Path-105" class="cls-2" d="M649.11,401.34q4.29,1.77,14.35-1.13T679,385.85q8.44-.66,18.08,15.1c9.63,15.76,3.06,43.11,10,53.94q7,10.83,22.13,19.95-49.44,6.59-66.91-21.13C650.68,435.23,647.57,416,649.11,401.34Z"/><path id="Path-93" class="cls-3" d="M497.7,674.14c0,13.44-115.44,185.4-115.44,185.4s-5.46,19.7-11.47,23S322,905,316.55,905.4c-8.21.57,5.16-44.15,12.33-55q7.15-10.82,34.78-27.31l60.75-173.42"/><path id="Path-93-2" data-name="Path-93" class="cls-4" d="M470,724.56c-34.16,55.13-87.76,135-87.76,135s-5.46,19.7-11.47,23S322,905,316.55,905.4c-8.21.57,5.16-44.15,12.33-55q7.15-10.82,34.78-27.31l54.66-156"/><path id="Path-88" class="cls-5" d="M410.42,649.89,499,681.18c39.19-87.67,40.6-129.72,43.94-145.86s2.71-64.11-32.19-74.46-53,18.69-58.43,26.4S410.42,649.89,410.42,649.89Z"/><path class="cls-5" d="M712.63,801.23c.38.62-.1,1.21-1.34,1.79-19.43,9.09-225.28,13-238.53,5.21-.76-.45-.9-.94-.3-1.47a4.76,4.76,0,0,0,.83-1.08c4.8-8,8.11-46.24,10.32-86.27,2.77-50.21,3.81-86.6,3.81-86.6s-6-20-10.58-22.52c0,0-38.19-66.46-28.33-112.26,7.63-35.41,62.87-53.26,68.18-51.27,12.2,4.56,9.75,41.71,40.94,43.15,39,1.54,63.78-45,95-44.25,37.09,7.16,74.68,12.95,84.36,31.62s27.73,49.49-33.43,161.33C703.59,732.2,698.76,777.91,712.63,801.23Z"/><path class="cls-2" d="M898.25,962.06c-23.35,28.64-208,22.6-332.79,3.21a61.71,61.71,0,0,0-8-5c-113,15.53-236,26-255.7,1.78-32.65-42.95,35.07-83.91,61.83-103.08C408,820.7,510,816.31,600,821.3c90-5,192-.6,236.4,37.68C863.17,878.15,930.89,919.11,898.25,962.06Z"/><path class="cls-6" d="M606.45,902.32S621.17,877.24,637,853c22.22-7,104.52,1,114.6,5.7s24.49,17.09,13.38,35.44-83.21,12.89-93,14.73a36.84,36.84,0,0,1-16.82-.47"/><path class="cls-6" d="M563.9,902.93s-21.63-7.87-43-27.29c-23.27-1.2-97.19,25.89-105.75,33s-19.37,22.73-4,37.68,83.77-8.59,93.7-9.29,45.21,19.38,45.21,19.38"/><path id="Path-93-3" data-name="Path-93" class="cls-3" d="M701.37,674.14c0,13.44,115.44,185.4,115.44,185.4s5.46,19.7,11.48,23,48.76,22.52,54.24,22.9c8.21.57-5.17-44.15-12.33-55q-7.17-10.82-34.79-27.31L774.67,649.71"/><path id="Path-93-4" data-name="Path-93" class="cls-4" d="M715.73,702.6C746.66,755,816.81,859.54,816.81,859.54s5.46,19.7,11.48,23,48.76,22.52,54.24,22.9c8.21.57-5.17-44.15-12.33-55q-7.17-10.82-34.79-27.31L784.64,678.19"/><path id="Path-88-2" data-name="Path-88" class="cls-5" d="M788.66,649.89l-88.57,31.29c-39.18-87.67-40.6-129.72-43.93-145.86s-.56-64.56,34.34-74.91S745.63,484,745.63,484Z"/><path class="cls-4" d="M491.86,630c8.12,23.35-4.06,51.46-4.06,51.46"/><path class="cls-4" d="M673.56,583.3c1,50.75,20.58,83.41,26.53,97.88"/></svg>